<svg xmlns="http://www.w3.org/2000/svg" xmlns:xlink="http://www.w3.org/1999/xlink" width="128" zoomAndPan="magnify" viewBox="0 0 96 95.999999" height="128" preserveAspectRatio="xMidYMid meet" version="1.0"><defs><clipPath id="fbba9f1efd"><path d="M 0 0 L 95.25 0 L 95.25 96 L 0 96 Z M 0 0 " clip-rule="nonzero"/></clipPath></defs><path fill="#00bf63" d="M 15.195312 55.566406 L 22.773438 55.566406 C 23.824219 55.566406 24.675781 54.714844 24.675781 53.664062 L 24.675781 46.085938 C 24.675781 45.035156 23.824219 44.183594 22.773438 44.183594 L 15.195312 44.183594 C 14.144531 44.183594 13.289062 45.035156 13.289062 46.085938 L 13.289062 53.664062 C 13.289062 54.714844 14.144531 55.566406 15.195312 55.566406 Z M 15.195312 55.566406 " fill-opacity="1" fill-rule="nonzero"/><path fill="#00bf63" d="M 15.195312 71.234375 L 22.773438 71.234375 C 23.824219 71.234375 24.675781 70.382812 24.675781 69.332031 L 24.675781 61.753906 C 24.675781 60.703125 23.824219 59.847656 22.773438 59.847656 L 15.195312 59.847656 C 14.144531 59.847656 13.289062 60.703125 13.289062 61.753906 L 13.289062 69.332031 C 13.289062 70.382812 14.144531 71.234375 15.195312 71.234375 Z M 15.195312 71.234375 " fill-opacity="1" fill-rule="nonzero"/><path fill="#00bf63" d="M 15.195312 86.902344 L 22.773438 86.902344 C 23.824219 86.902344 24.675781 86.050781 24.675781 85 L 24.675781 77.417969 C 24.675781 76.367188 23.824219 75.515625 22.773438 75.515625 L 15.195312 75.515625 C 14.144531 75.515625 13.289062 76.367188 13.289062 77.417969 L 13.289062 85 C 13.289062 86.050781 14.144531 86.902344 15.195312 86.902344 Z M 15.195312 86.902344 " fill-opacity="1" fill-rule="nonzero"/><path fill="#00bf63" d="M 34.304688 55.566406 L 41.882812 55.566406 C 42.933594 55.566406 43.785156 54.714844 43.785156 53.664062 L 43.785156 46.085938 C 43.785156 45.035156 42.933594 44.183594 41.882812 44.183594 L 34.304688 44.183594 C 33.253906 44.183594 32.402344 45.035156 32.402344 46.085938 L 32.402344 53.664062 C 32.402344 54.714844 33.253906 55.566406 34.304688 55.566406 Z M 34.304688 55.566406 " fill-opacity="1" fill-rule="nonzero"/><path fill="#00bf63" d="M 34.304688 71.234375 L 41.882812 71.234375 C 42.933594 71.234375 43.785156 70.382812 43.785156 69.332031 L 43.785156 61.753906 C 43.785156 60.703125 42.933594 59.847656 41.882812 59.847656 L 34.304688 59.847656 C 33.253906 59.847656 32.402344 60.703125 32.402344 61.753906 L 32.402344 69.332031 C 32.402344 70.382812 33.253906 71.234375 34.304688 71.234375 Z M 34.304688 71.234375 " fill-opacity="1" fill-rule="nonzero"/><path fill="#00bf63" d="M 34.304688 86.902344 L 41.882812 86.902344 C 42.933594 86.902344 43.785156 86.050781 43.785156 85 L 43.785156 77.417969 C 43.785156 76.367188 42.933594 75.515625 41.882812 75.515625 L 34.304688 75.515625 C 33.253906 75.515625 32.402344 76.367188 32.402344 77.417969 L 32.402344 85 C 32.402344 86.050781 33.253906 86.902344 34.304688 86.902344 Z M 34.304688 86.902344 " fill-opacity="1" fill-rule="nonzero"/><path fill="#00bf63" d="M 53.414062 55.566406 L 60.992188 55.566406 C 62.042969 55.566406 62.894531 54.714844 62.894531 53.664062 L 62.894531 46.085938 C 62.894531 45.035156 62.042969 44.183594 60.992188 44.183594 L 53.414062 44.183594 C 52.363281 44.183594 51.511719 45.035156 51.511719 46.085938 L 51.511719 53.664062 C 51.511719 54.714844 52.363281 55.566406 53.414062 55.566406 Z M 53.414062 55.566406 " fill-opacity="1" fill-rule="nonzero"/><path fill="#00bf63" d="M 60.992188 75.515625 L 53.414062 75.515625 C 52.363281 75.515625 51.511719 76.367188 51.511719 77.417969 L 51.511719 85 C 51.511719 86.050781 52.363281 86.902344 53.414062 86.902344 L 60.992188 86.902344 C 62.042969 86.902344 62.894531 86.050781 62.894531 85 L 62.894531 77.417969 C 62.894531 76.367188 62.042969 75.515625 60.992188 75.515625 Z M 60.992188 75.515625 " fill-opacity="1" fill-rule="nonzero"/><path fill="#00bf63" d="M 72.523438 55.566406 L 80.101562 55.566406 C 81.152344 55.566406 82.007812 54.714844 82.007812 53.664062 L 82.007812 46.085938 C 82.007812 45.035156 81.15625 44.183594 80.101562 44.183594 L 72.523438 44.183594 C 71.472656 44.183594 70.621094 45.035156 70.621094 46.085938 L 70.621094 53.664062 C 70.621094 54.714844 71.472656 55.566406 72.523438 55.566406 Z M 72.523438 55.566406 " fill-opacity="1" fill-rule="nonzero"/><path fill="#00bf63" d="M 72.523438 71.234375 L 80.101562 71.234375 C 81.152344 71.234375 82.007812 70.382812 82.007812 69.332031 L 82.007812 61.753906 C 82.007812 60.703125 81.15625 59.847656 80.101562 59.847656 L 72.523438 59.847656 C 71.472656 59.847656 70.621094 60.703125 70.621094 61.753906 L 70.621094 69.332031 C 70.621094 70.382812 71.472656 71.234375 72.523438 71.234375 Z M 72.523438 71.234375 " fill-opacity="1" fill-rule="nonzero"/><g clip-path="url(#fbba9f1efd)"><path fill="#00bf63" d="M 72.945312 0.0429688 C 71.160156 0.0429688 69.710938 1.492188 69.710938 3.277344 L 69.710938 9.769531 L 25.75 9.769531 L 25.75 3.277344 C 25.75 1.492188 24.304688 0.0429688 22.519531 0.0429688 C 20.734375 0.0429688 19.289062 1.492188 19.289062 3.277344 L 19.289062 9.769531 L 9.101562 9.769531 C 4.082031 9.769531 0 13.855469 0 18.871094 L 0 86.855469 C 0 91.871094 4.082031 95.957031 9.101562 95.957031 L 86.195312 95.957031 C 91.214844 95.957031 95.296875 91.871094 95.296875 86.855469 L 95.296875 18.871094 C 95.296875 13.855469 91.214844 9.769531 86.195312 9.769531 L 76.175781 9.769531 L 76.175781 3.277344 C 76.175781 1.492188 74.730469 0.0429688 72.945312 0.0429688 Z M 19.289062 14.40625 L 19.289062 18.421875 C 19.289062 20.207031 20.734375 21.652344 22.519531 21.652344 C 24.304688 21.652344 25.75 20.207031 25.75 18.421875 L 25.75 14.40625 C 26.921875 15.351562 27.671875 16.796875 27.671875 18.421875 C 27.671875 21.265625 25.363281 23.574219 22.519531 23.574219 C 19.671875 23.574219 17.367188 21.265625 17.367188 18.421875 C 17.367188 16.796875 18.117188 15.351562 19.289062 14.40625 Z M 90.8125 86.855469 C 90.8125 89.398438 88.742188 91.472656 86.195312 91.472656 L 9.101562 91.472656 C 6.554688 91.472656 4.484375 89.398438 4.484375 86.855469 L 4.484375 39.613281 L 90.8125 39.613281 Z M 78.097656 18.421875 C 78.097656 21.265625 75.789062 23.574219 72.945312 23.574219 C 70.097656 23.574219 67.789062 21.265625 67.789062 18.421875 C 67.789062 16.796875 68.539062 15.351562 69.710938 14.40625 L 69.710938 18.421875 C 69.710938 20.207031 71.160156 21.652344 72.945312 21.652344 C 74.726562 21.652344 76.175781 20.207031 76.175781 18.421875 L 76.175781 14.40625 C 77.347656 15.351562 78.097656 16.796875 78.097656 18.421875 Z M 78.097656 18.421875 " fill-opacity="1" fill-rule="nonzero"/></g><path fill="#00bf63" d="M 56.605469 72.238281 L 65.632812 63.207031 C 66.511719 62.332031 66.511719 60.914062 65.632812 60.035156 C 64.757812 59.160156 63.339844 59.160156 62.464844 60.035156 L 56.605469 65.898438 L 54.25 63.542969 C 53.375 62.667969 51.957031 62.667969 51.082031 63.542969 C 50.203125 64.417969 50.203125 65.839844 51.082031 66.714844 Z M 56.605469 72.238281 " fill-opacity="1" fill-rule="nonzero"/></svg>